<svg width="20" height="25" viewBox="0 0 20 25" fill="none" xmlns="http://www.w3.org/2000/svg">
<path d="M9.98111 21.703C10.3499 21.703 11.5338 21.2205 13.2277 19.6837C15.9188 17.2534 19.0606 12.9825 19.0606 8.96176C19.0606 6.58495 18.0983 4.30549 16.3853 2.62484C14.6723 0.944183 12.349 0 9.92647 0C7.50394 0 5.18062 0.944183 3.46763 2.62484C1.75464 4.30549 0.792296 6.58495 0.792296 8.96176C0.792296 15.2788 8.29179 21.569 9.98111 21.703ZM9.92647 3.62312C10.7874 3.62312 11.6291 3.87361 12.3449 4.3429C13.0608 4.81219 13.6187 5.47922 13.9482 6.25962C14.2777 7.04003 14.3639 7.89877 14.1959 8.72724C14.0279 9.55572 13.6133 10.3167 13.0046 10.914C12.3958 11.5113 11.6201 11.9181 10.7757 12.0829C9.9313 12.2477 9.05604 12.1631 8.26062 11.8398C7.4652 11.5166 6.78534 10.9692 6.30702 10.2668C5.8287 9.56447 5.5734 8.73874 5.5734 7.89403C5.5746 6.76168 6.03361 5.67604 6.84971 4.87535C7.66581 4.07466 8.77233 3.62431 9.92647 3.62312ZM19.8529 22.5429C19.8529 23.3783 16.3514 25 9.92647 25C3.50159 25 0 23.3783 0 22.5429C0 21.9845 1.63923 20.948 5.29108 20.4119C5.35453 20.4021 5.416 20.3825 5.47322 20.3538C7.18531 21.9398 8.86097 22.9584 9.87183 23.0343H9.99933C11.3654 23.0343 13.3552 21.3858 14.1566 20.6621C14.2568 20.5727 14.357 20.4744 14.4571 20.3762C14.4915 20.3871 14.5264 20.3961 14.5619 20.403C18.2137 20.948 19.8529 21.9845 19.8529 22.5429Z" fill="#FFCC00"/>
</svg>
