<svg width="125" height="82" viewBox="0 0 125 82" fill="none" xmlns="http://www.w3.org/2000/svg">
<path d="M8.04902 78.379L7.18439 74.703C7.08441 74.2779 7.05586 73.8841 7.09875 73.5216C7.14062 73.1547 7.23862 72.8318 7.39275 72.553C7.54152 72.2708 7.73825 72.0368 7.98294 71.8511C8.22662 71.6611 8.50243 71.5298 8.81039 71.4574C9.19209 71.3676 9.56816 71.3707 9.93862 71.4666C10.3037 71.5593 10.6572 71.7485 10.9991 72.0343C11.0509 71.7291 11.1362 71.4596 11.2552 71.2256C11.3697 70.9927 11.5103 70.7926 11.677 70.6252C11.8382 70.4545 12.0207 70.3155 12.2243 70.2081C12.4269 70.0964 12.6409 70.014 12.8665 69.9609C13.2308 69.8752 13.5918 69.8727 13.9495 69.9533C14.3072 70.034 14.6365 70.1786 14.9373 70.387C15.2327 70.5922 15.4901 70.8498 15.7095 71.1598C15.9289 71.4698 16.082 71.8091 16.1687 72.1778L17.1252 76.2442L8.04902 78.379ZM11.3053 75.9927L10.8523 74.0668C10.8023 73.8543 10.7239 73.6668 10.617 73.5042C10.5048 73.3384 10.3769 73.2037 10.2336 73.1001C10.0858 72.9975 9.92792 72.9294 9.75978 72.8957C9.58629 72.8587 9.41496 72.8601 9.2458 72.8998C9.08966 72.9366 8.95481 72.9958 8.84127 73.0774C8.72338 73.16 8.62948 73.2668 8.55957 73.3977C8.48863 73.5242 8.44652 73.676 8.43324 73.8531C8.41995 74.0302 8.43933 74.2293 8.49136 74.4505L8.9826 76.539L11.3053 75.9927ZM15.4497 75.0179L14.9447 72.8708C14.8988 72.6756 14.8269 72.4866 14.7289 72.3036C14.63 72.1163 14.5079 71.9574 14.3627 71.8267C14.2122 71.6928 14.0406 71.5958 13.848 71.5358C13.651 71.4769 13.4311 71.476 13.1882 71.5331C12.9887 71.58 12.8085 71.6705 12.6478 71.8044C12.487 71.9383 12.3598 72.1079 12.2662 72.313C12.1715 72.5138 12.1142 72.747 12.0943 73.0126C12.07 73.2792 12.0941 73.5665 12.1666 73.8744L12.5935 75.6897L15.4497 75.0179Z" fill="#757575"/>
<path d="M5.92304 66.1171L15.2157 65.3556L15.3445 66.9277L6.05187 67.6892L5.92304 66.1171Z" fill="#757575"/>
<path d="M5.8183 60.2926L13.7801 60.7287L14.0254 56.2506L15.3735 56.3245L15.0419 62.3776L5.73203 61.8676L5.8183 60.2926Z" fill="#757575"/>
<path d="M7.04128 50.4092L14.8023 52.2385L15.8312 47.8733L17.1453 48.183L15.7546 54.0835L6.67943 51.9445L7.04128 50.4092Z" fill="#757575"/>
<path d="M9.83951 41.2671L18.5392 44.6209L17.9719 46.0927L9.27212 42.7388L9.83951 41.2671Z" fill="#757575"/>
<path d="M19.6646 32.4402C20.2878 32.8045 20.8127 33.2223 21.2391 33.6935C21.6618 34.1625 21.9682 34.6668 22.1586 35.2064C22.3473 35.74 22.4106 36.2983 22.3485 36.8813C22.2864 37.4644 22.0811 38.054 21.7325 38.6503C21.384 39.2465 20.9709 39.7148 20.4934 40.055C20.0142 40.389 19.4947 40.6067 18.935 40.7078C18.3736 40.8029 17.7849 40.7814 17.1689 40.6432C16.5513 40.4989 15.9309 40.2447 15.3077 39.8804C14.6845 39.5161 14.1624 39.1025 13.7414 38.6396C13.3226 38.1729 13.0208 37.6739 12.8359 37.1426C12.6532 36.6074 12.5937 36.0514 12.6574 35.4744C12.7234 34.8936 12.9307 34.3051 13.2792 33.7088C13.6278 33.1126 14.0408 32.6444 14.5184 32.3042C14.9921 31.9617 15.5058 31.7407 16.0595 31.6412C16.6154 31.5378 17.1995 31.554 17.8116 31.6899C18.4238 31.8258 19.0415 32.0759 19.6646 32.4402ZM18.8628 33.7986C18.3743 33.513 17.9036 33.3205 17.4508 33.2209C16.9981 33.1214 16.5798 33.104 16.1962 33.1688C15.8109 33.2275 15.4666 33.3617 15.1633 33.5715C14.8585 33.7752 14.6093 34.0425 14.4159 34.3733C14.2203 34.708 14.1074 35.06 14.0772 35.4295C14.0455 35.7929 14.0985 36.1568 14.2364 36.5213C14.3728 36.8797 14.5953 37.2317 14.9042 37.5774C15.2153 37.9193 15.6152 38.233 16.1037 38.5186C16.5923 38.8042 17.0637 38.9998 17.5181 39.1054C17.9748 39.2072 18.3984 39.2329 18.7891 39.1826C19.1782 39.1262 19.5272 38.9972 19.8359 38.7958C20.143 38.5882 20.3944 38.3171 20.59 37.9824C20.7834 37.6516 20.8941 37.3034 20.922 36.9378C20.9483 36.5661 20.8906 36.1968 20.7489 35.8301C20.6055 35.4573 20.3775 35.0969 20.0647 34.7489C19.752 34.401 19.3514 34.0842 18.8628 33.7986Z" fill="#757575"/>
<path d="M19.6984 25.1186L27.6125 27.0379L22.4329 22.1943L23.5102 21.0422L30.3204 27.4105L29.1061 28.7091L21.1294 26.7587L26.3579 31.648L25.2805 32.8001L18.4704 26.4318L19.6984 25.1186Z" fill="#757575"/>
<path d="M31.1791 15.1341L39.2454 20.921L37.881 21.8504L35.5172 20.161L32.7442 22.05C32.865 22.5122 32.9827 22.9819 33.0975 23.4591C33.2159 23.9337 33.3356 24.4021 33.4563 24.8644L32.1085 25.7825L29.6766 16.1576L31.1791 15.1341ZM31.5193 17.2719L32.4024 20.6815L34.3634 19.3457L31.5193 17.2719Z" fill="#757575"/>
<path d="M38.9082 10.8725L42.8705 19.3125L41.4426 19.9828L37.4804 11.5428L38.9082 10.8725Z" fill="#757575"/>
<path d="M50.4194 9.77059C50.535 10.1639 50.541 10.5638 50.4375 10.9704C50.3371 11.3715 50.1166 11.759 49.776 12.1331C49.9927 12.1437 50.1905 12.1924 50.3692 12.2792C50.548 12.366 50.7061 12.4775 50.8436 12.6136C50.9799 12.7454 51.0964 12.8969 51.1931 13.0682C51.2886 13.2352 51.3628 13.4085 51.4155 13.588L51.7961 14.8834C51.8438 15.0458 51.9382 15.2248 52.0792 15.4202C52.2244 15.6144 52.3994 15.8068 52.604 15.9975L50.9495 16.4835C50.8553 16.3998 50.7704 16.3086 50.695 16.21C50.6239 16.1101 50.5619 16.0099 50.5092 15.9093C50.4607 15.8075 50.4183 15.7108 50.3821 15.6192C50.3502 15.5264 50.3236 15.4437 50.3023 15.371L49.9029 14.0115C49.8639 13.879 49.8015 13.7533 49.7155 13.6346C49.6338 13.5147 49.5288 13.4178 49.4003 13.3441C49.2706 13.2661 49.115 13.2189 48.9338 13.2025C48.7512 13.1818 48.5445 13.2054 48.3136 13.2732L46.0307 13.9439L47.1083 17.612L45.5949 18.0566L42.9668 9.11081L46.7632 7.99553C47.2249 7.85989 47.6579 7.81627 48.0622 7.86468C48.4666 7.91309 48.827 8.02548 49.1435 8.20185C49.4643 8.37696 49.7326 8.60235 49.9482 8.87802C50.1682 9.15243 50.3252 9.44995 50.4194 9.77059ZM45.6577 12.6742L47.9406 12.0035C48.1245 11.9495 48.2882 11.8666 48.4318 11.7547C48.5784 11.6373 48.6968 11.5027 48.7869 11.3509C48.8799 11.1935 48.9383 11.0207 48.962 10.8327C48.9857 10.6446 48.9681 10.4501 48.909 10.2491C48.8513 10.0525 48.7637 9.88083 48.6463 9.7342C48.5277 9.58329 48.3888 9.46619 48.2296 9.38291C48.0735 9.29409 47.902 9.23998 47.7152 9.22055C47.5271 9.19686 47.3347 9.2139 47.1381 9.27167L44.8551 9.94234L45.6577 12.6742Z" fill="#757575"/>
<path d="M60.9896 5.75755L61.0965 7.0833L56.1066 7.48594L56.3093 9.99755L60.9927 9.61964L61.1003 10.9521L56.4168 11.33L56.641 14.1081L61.8441 13.6882L61.9527 15.034L55.1773 15.5807L54.4274 6.28706L60.9896 5.75755Z" fill="#757575"/>
<path d="M83.0686 9.71621L86.3417 11.2685C86.9214 11.5435 87.3883 11.9005 87.7422 12.3396C88.1021 12.7766 88.3524 13.2627 88.4931 13.7979C88.6397 14.331 88.6784 14.8943 88.609 15.4877C88.5415 16.077 88.3703 16.6616 88.0954 17.2413C87.809 17.8452 87.453 18.3619 87.0274 18.7913C86.6018 19.2207 86.1343 19.5464 85.6246 19.7682C85.115 19.9901 84.5801 20.0989 84.02 20.0946C83.4598 20.0903 82.9019 19.9564 82.3464 19.6929L79.0732 18.1406L83.0686 9.71621ZM81.077 17.5967L82.5867 18.3127C82.9692 18.4941 83.354 18.5977 83.7412 18.6235C84.1303 18.6453 84.5018 18.5848 84.8556 18.4419C85.2134 18.3009 85.5466 18.0767 85.8551 17.7693C86.1655 17.4579 86.4353 17.0606 86.6644 16.5775C86.9107 16.0582 87.0552 15.5768 87.0978 15.1334C87.1444 14.692 87.1072 14.2921 86.9861 13.9339C86.8691 13.5776 86.6752 13.2637 86.4045 12.9923C86.1357 12.7168 85.812 12.4894 85.4336 12.3099L83.9238 11.5939L81.077 17.5967Z" fill="#757575"/>
<path d="M99.0819 19.4346L98.2749 20.4919L94.2956 17.4543L92.7667 19.4572L96.5015 22.3082L95.6904 23.3708L91.9556 20.5198L90.2644 22.7352L94.4137 25.9025L93.5945 26.9757L88.1914 22.8513L93.8488 15.44L99.0819 19.4346Z" fill="#757575"/>
<path d="M98.6111 27.4166C98.3854 27.6457 98.2077 27.8888 98.0781 28.1459C97.9548 28.4034 97.8803 28.6624 97.8547 28.9228C97.829 29.1832 97.8558 29.439 97.9349 29.6902C98.0173 29.9383 98.1544 30.171 98.3461 30.3881C98.5143 30.5785 98.6951 30.7428 98.8885 30.8811C99.0849 31.0227 99.2872 31.1205 99.4953 31.1744C99.7035 31.2284 99.9148 31.232 100.129 31.1854C100.347 31.1357 100.561 31.018 100.771 30.8322C100.962 30.6641 101.069 30.4655 101.093 30.2366C101.122 30.008 101.103 29.7574 101.035 29.4848C100.967 29.2123 100.865 28.9218 100.729 28.6135C100.594 28.3052 100.457 27.9889 100.319 27.6647C100.185 27.3438 100.063 27.0174 99.9539 26.6855C99.8484 26.3506 99.7882 26.0233 99.7734 25.7036C99.7618 25.3809 99.8113 25.0667 99.9218 24.761C100.035 24.4587 100.242 24.1748 100.543 23.9093C100.85 23.638 101.174 23.4592 101.514 23.373C101.857 23.2838 102.205 23.277 102.557 23.3525C102.912 23.4313 103.262 23.5857 103.608 23.8155C103.96 24.0457 104.295 24.3411 104.613 24.7018C105.038 25.1828 105.32 25.6438 105.46 26.085C105.603 26.5295 105.648 26.9474 105.596 27.3387C105.546 27.7271 105.425 28.0842 105.231 28.4099C105.037 28.7357 104.817 29.0219 104.571 29.2687L103.505 28.0613C103.711 27.8437 103.862 27.6242 103.958 27.4028C104.057 27.1848 104.106 26.9685 104.107 26.7539C104.108 26.5393 104.065 26.333 103.98 26.1351C103.898 25.9343 103.78 25.7471 103.626 25.5734C103.488 25.4164 103.334 25.2759 103.165 25.1517C102.999 25.0246 102.826 24.9334 102.647 24.8781C102.47 24.8198 102.291 24.8055 102.11 24.8353C101.931 24.8621 101.758 24.9492 101.591 25.0967C101.398 25.2677 101.284 25.4691 101.251 25.7006C101.224 25.9325 101.243 26.1862 101.308 26.4618C101.376 26.7343 101.476 27.0262 101.609 27.3375C101.744 27.6458 101.879 27.9636 102.014 28.2907C102.151 28.615 102.275 28.943 102.383 29.2749C102.492 29.6068 102.554 29.9327 102.569 30.2524C102.584 30.5722 102.536 30.8818 102.426 31.1811C102.319 31.4839 102.118 31.765 101.824 32.0245C101.467 32.3401 101.096 32.5491 100.711 32.6515C100.328 32.7572 99.944 32.7696 99.5576 32.6888C99.1741 32.6114 98.7942 32.4505 98.418 32.2061C98.0446 31.9651 97.6884 31.6526 97.3492 31.2685C97.0454 30.9245 96.8106 30.5374 96.6447 30.1073C96.4788 29.6771 96.3959 29.2332 96.3959 28.7754C96.3988 28.321 96.4898 27.8721 96.6689 27.4286C96.8542 26.9856 97.1462 26.5791 97.5448 26.2092L98.6111 27.4166Z" fill="#757575"/>
<path d="M109.798 31.9594L101.999 37.0694L101.134 35.75L108.933 30.64L109.798 31.9594Z" fill="#757575"/>
<path d="M108.42 38.806C107.894 39.0378 107.457 39.3108 107.108 39.6251C106.764 39.9375 106.503 40.269 106.327 40.6195C106.152 40.9741 106.058 41.3367 106.046 41.7072C106.038 42.0759 106.11 42.4315 106.261 42.774C106.385 43.0553 106.575 43.3 106.833 43.508C107.09 43.716 107.38 43.8778 107.704 43.9933C108.033 44.111 108.381 44.1768 108.748 44.1906C109.114 44.2044 109.469 44.1578 109.811 44.0508L108.7 41.5309L109.911 40.9972L111.647 44.936L106.944 47.0088L106.467 45.9262L107.407 45.3075C107.164 45.2199 106.922 45.1094 106.684 44.9761C106.451 44.8451 106.231 44.6958 106.026 44.5282C105.821 44.3606 105.634 44.175 105.467 43.9713C105.299 43.7676 105.165 43.5516 105.064 43.3233C104.795 42.7117 104.663 42.1098 104.67 41.5176C104.683 40.9277 104.813 40.3714 105.059 39.8487C105.306 39.326 105.662 38.8505 106.125 38.4221C106.591 37.9979 107.144 37.6447 107.784 37.3626C108.155 37.1991 108.541 37.0752 108.942 36.9909C109.345 36.9108 109.745 36.8733 110.142 36.8786C110.544 36.8862 110.936 36.9402 111.316 37.0405C111.7 37.1389 112.06 37.2871 112.395 37.485C112.733 37.6869 113.039 37.9392 113.313 38.2418C113.588 38.5444 113.817 38.9037 114 39.3196C114.234 39.8497 114.367 40.3559 114.399 40.8383C114.431 41.3207 114.382 41.7781 114.252 42.2107C114.125 42.6414 113.925 43.0437 113.651 43.4174C113.38 43.7953 113.053 44.1435 112.673 44.4622L112.012 42.9637C112.525 42.4799 112.846 41.9828 112.977 41.4724C113.111 40.9602 113.053 40.4187 112.801 39.8479C112.64 39.4809 112.404 39.1832 112.094 38.9546C111.789 38.7283 111.438 38.5716 111.039 38.4844C110.644 38.3954 110.22 38.3778 109.767 38.4315C109.317 38.4835 108.868 38.6083 108.42 38.806Z" fill="#757575"/>
<path d="M117.262 49.8192L111.045 55.0792L118.011 53.7521L118.306 55.3015L109.147 57.0465L108.814 55.3001L115.093 50.0079L108.061 51.3476L107.766 49.7981L116.925 48.0531L117.262 49.8192Z" fill="#757575"/>
<path d="M118.53 66.817L117.2 66.7879L117.309 61.783L114.79 61.7279L114.687 66.4254L113.351 66.3962L113.454 61.6987L110.667 61.6377L110.553 66.8565L109.203 66.827L109.352 60.0312L118.673 60.2351L118.53 66.817Z" fill="#757575"/>
<path d="M113.72 77.7323C113.32 77.64 112.969 77.449 112.665 77.1594C112.365 76.8751 112.136 76.4928 111.977 76.0125C111.861 76.1961 111.722 76.3445 111.559 76.4577C111.395 76.5709 111.221 76.654 111.034 76.707C110.853 76.7611 110.664 76.7882 110.467 76.7885C110.274 76.7898 110.087 76.7694 109.905 76.7272L108.589 76.4233C108.424 76.3852 108.222 76.3796 107.983 76.4066C107.742 76.4379 107.489 76.4959 107.222 76.5807L107.61 74.9006C107.73 74.8595 107.851 74.8303 107.974 74.813C108.095 74.8 108.213 74.7952 108.327 74.7986C108.439 74.8063 108.544 74.8168 108.642 74.8302C108.738 74.8479 108.824 74.8653 108.897 74.8824L110.278 75.2014C110.413 75.2325 110.553 75.2397 110.698 75.2231C110.843 75.2107 110.979 75.1667 111.106 75.0909C111.238 75.0162 111.355 74.9038 111.458 74.7539C111.566 74.6049 111.647 74.4133 111.701 74.1788L112.237 71.8605L108.512 70.9998L108.867 69.4629L117.951 71.5621L117.06 75.4173C116.952 75.8861 116.778 76.2848 116.537 76.6134C116.297 76.942 116.022 77.2009 115.713 77.3902C115.403 77.5838 115.075 77.7069 114.729 77.7596C114.382 77.8166 114.045 77.8075 113.72 77.7323ZM113.526 72.1585L112.99 74.4768C112.947 74.6635 112.939 74.8468 112.966 75.0268C112.997 75.2122 113.056 75.3814 113.144 75.5344C113.235 75.6927 113.357 75.8283 113.509 75.9413C113.662 76.0542 113.84 76.1342 114.044 76.1814C114.244 76.2275 114.436 76.2354 114.622 76.2051C114.811 76.1757 114.981 76.1122 115.132 76.0144C115.286 75.9219 115.417 75.799 115.526 75.6458C115.639 75.4935 115.718 75.3175 115.765 75.1178L116.3 72.7995L113.526 72.1585Z" fill="#757575"/>
<path d="M62.1766 41.1895L65.8253 52.4191H77.6329L68.0804 59.3595L71.7291 70.5892L62.1766 63.6488L52.624 70.5892L56.2728 59.3595L46.7202 52.4191H58.5278L62.1766 41.1895Z" fill="#757575"/>
</svg>
