<svg width="61" height="54" viewBox="0 0 61 54" fill="none" xmlns="http://www.w3.org/2000/svg">
<g filter="url(#filter0_d_1_256)">
<path d="M10.5472 46.522V33.1331C1.30185 32.5694 1.00003 25.6857 1 21.6212C1 20.3205 1.01998 17.5175 1.24548 9.1742C1.47098 0.830841 7.53311 0.0134377 10.5472 0.0134271H39.5797C51.4184 -0.409375 48.6296 9.21194 48.9216 20.5262C49.1737 30.3004 45.0894 32.826 39.3957 32.826L26.3318 33.1331C24.4996 35.0123 19.9053 40.1505 15.198 44.6899C11.0369 48.7025 10.5472 48.082 10.5472 46.522Z" fill="#FF777E"/>
<path d="M10.5472 46.522V33.1331C1.30185 32.5694 1.00003 25.6857 1 21.6212C1 20.3205 1.01998 17.5175 1.24548 9.1742C1.47098 0.830841 7.53311 0.0134377 10.5472 0.0134271H39.5797C51.4184 -0.409375 48.6296 9.21194 48.9216 20.5262C49.1737 30.3004 45.0894 32.826 39.3957 32.826L26.3318 33.1331C24.4996 35.0123 19.9053 40.1505 15.198 44.6899C11.0369 48.7025 10.5472 48.082 10.5472 46.522Z" stroke="#FF777E" stroke-width="0.0185815"/>
</g>
<g filter="url(#filter1_d_1_256)">
<path d="M33.3397 37.5863H26.1579L21.6377 42.0241H31.4885L41.9673 52.3135C45.2553 55.3296 46.3975 51.56 46.3975 49.4121V42.0241H49.8637C57.8198 42.0241 59.7759 35.701 59.9091 31.2417C60.0423 26.7821 59.5029 13.1077 59.3832 11.407C59.1226 7.70457 53.7817 6.81445 51.9221 6.81445V11.407C55.5928 11.407 55.3755 13.5514 55.3755 15.6002V30.1986C55.3755 36.3215 53.6308 37.5863 49.8637 37.5863H41.7387L41.9213 46.3505L33.3397 37.5863Z" fill="#FF777E"/>
<path d="M33.3397 37.5863H26.1579L21.6377 42.0241H31.4885L41.9673 52.3135C45.2553 55.3296 46.3975 51.56 46.3975 49.4121V42.0241H49.8637C57.8198 42.0241 59.7759 35.701 59.9091 31.2417C60.0423 26.7821 59.5029 13.1077 59.3832 11.407C59.1226 7.70457 53.7817 6.81445 51.9221 6.81445V11.407C55.5928 11.407 55.3755 13.5514 55.3755 15.6002V30.1986C55.3755 36.3215 53.6308 37.5863 49.8637 37.5863H41.7387L41.9213 46.3505L33.3397 37.5863Z" stroke="#FF777E" stroke-width="0.0185815"/>
</g>
<g filter="url(#filter2_d_1_256)">
<path d="M35.638 19.6188C37.4989 19.6188 39.0074 18.1102 39.0074 16.2493C39.0074 14.3884 37.4989 12.8799 35.638 12.8799C33.7771 12.8799 32.2686 14.3884 32.2686 16.2493C32.2686 18.1102 33.7771 19.6188 35.638 19.6188Z" fill="white"/>
<path d="M35.6375 19.4206C37.389 19.4206 38.8088 18.0008 38.8088 16.2494C38.8088 14.4979 37.389 13.0781 35.6375 13.0781C33.8861 13.0781 32.4663 14.4979 32.4663 16.2494C32.4663 18.0008 33.8861 19.4206 35.6375 19.4206Z" stroke="white" stroke-width="0.0185815"/>
</g>
<g filter="url(#filter3_d_1_256)">
<path d="M14.3772 19.6188C16.2381 19.6188 17.7467 18.1102 17.7467 16.2493C17.7467 14.3884 16.2381 12.8799 14.3772 12.8799C12.5164 12.8799 11.0078 14.3884 11.0078 16.2493C11.0078 18.1102 12.5164 19.6188 14.3772 19.6188Z" fill="white"/>
<path d="M14.3773 19.4206C16.1287 19.4206 17.5485 18.0008 17.5485 16.2494C17.5485 14.4979 16.1287 13.0781 14.3773 13.0781C12.6259 13.0781 11.2061 14.4979 11.2061 16.2494C11.2061 18.0008 12.6259 19.4206 14.3773 19.4206Z" stroke="white" stroke-width="0.0185815"/>
</g>
<g filter="url(#filter4_d_1_256)">
<path d="M24.9612 19.6188C26.8221 19.6188 28.3307 18.1102 28.3307 16.2493C28.3307 14.3884 26.8221 12.8799 24.9612 12.8799C23.1003 12.8799 21.5918 14.3884 21.5918 16.2493C21.5918 18.1102 23.1003 19.6188 24.9612 19.6188Z" fill="white"/>
<path d="M24.9613 19.4206C26.7127 19.4206 28.1325 18.0008 28.1325 16.2494C28.1325 14.4979 26.7127 13.0781 24.9613 13.0781C23.2098 13.0781 21.79 14.4979 21.79 16.2494C21.79 18.0008 23.2098 19.4206 24.9613 19.4206Z" stroke="white" stroke-width="0.0185815"/>
</g>
<defs>
<filter id="filter0_d_1_256" x="0.866846" y="-0.00927734" width="48.2795" height="47.9873" filterUnits="userSpaceOnUse" color-interpolation-filters="sRGB">
<feFlood flood-opacity="0" result="BackgroundImageFix"/>
<feColorMatrix in="SourceAlpha" type="matrix" values="0 0 0 0 0 0 0 0 0 0 0 0 0 0 0 0 0 0 127 0" result="hardAlpha"/>
<feOffset dy="0.123876"/>
<feGaussianBlur stdDeviation="0.0619382"/>
<feColorMatrix type="matrix" values="0 0 0 0 0 0 0 0 0 0 0 0 0 0 0 0 0 0 0.25 0"/>
<feBlend mode="normal" in2="BackgroundImageFix" result="effect1_dropShadow_1_256"/>
<feBlend mode="normal" in="SourceGraphic" in2="effect1_dropShadow_1_256" result="shape"/>
</filter>
<filter id="filter1_d_1_256" x="21.4909" y="6.80518" width="38.5725" height="46.8901" filterUnits="userSpaceOnUse" color-interpolation-filters="sRGB">
<feFlood flood-opacity="0" result="BackgroundImageFix"/>
<feColorMatrix in="SourceAlpha" type="matrix" values="0 0 0 0 0 0 0 0 0 0 0 0 0 0 0 0 0 0 127 0" result="hardAlpha"/>
<feOffset dy="0.123876"/>
<feGaussianBlur stdDeviation="0.0619382"/>
<feColorMatrix type="matrix" values="0 0 0 0 0 0 0 0 0 0 0 0 0 0 0 0 0 0 0.25 0"/>
<feBlend mode="normal" in2="BackgroundImageFix" result="effect1_dropShadow_1_256"/>
<feBlend mode="normal" in="SourceGraphic" in2="effect1_dropShadow_1_256" result="shape"/>
</filter>
<filter id="filter2_d_1_256" x="32.1447" y="12.8799" width="6.98652" height="6.98652" filterUnits="userSpaceOnUse" color-interpolation-filters="sRGB">
<feFlood flood-opacity="0" result="BackgroundImageFix"/>
<feColorMatrix in="SourceAlpha" type="matrix" values="0 0 0 0 0 0 0 0 0 0 0 0 0 0 0 0 0 0 127 0" result="hardAlpha"/>
<feOffset dy="0.123876"/>
<feGaussianBlur stdDeviation="0.0619382"/>
<feColorMatrix type="matrix" values="0 0 0 0 0 0 0 0 0 0 0 0 0 0 0 0 0 0 0.25 0"/>
<feBlend mode="normal" in2="BackgroundImageFix" result="effect1_dropShadow_1_256"/>
<feBlend mode="normal" in="SourceGraphic" in2="effect1_dropShadow_1_256" result="shape"/>
</filter>
<filter id="filter3_d_1_256" x="10.8839" y="12.8799" width="6.98652" height="6.98652" filterUnits="userSpaceOnUse" color-interpolation-filters="sRGB">
<feFlood flood-opacity="0" result="BackgroundImageFix"/>
<feColorMatrix in="SourceAlpha" type="matrix" values="0 0 0 0 0 0 0 0 0 0 0 0 0 0 0 0 0 0 127 0" result="hardAlpha"/>
<feOffset dy="0.123876"/>
<feGaussianBlur stdDeviation="0.0619382"/>
<feColorMatrix type="matrix" values="0 0 0 0 0 0 0 0 0 0 0 0 0 0 0 0 0 0 0.25 0"/>
<feBlend mode="normal" in2="BackgroundImageFix" result="effect1_dropShadow_1_256"/>
<feBlend mode="normal" in="SourceGraphic" in2="effect1_dropShadow_1_256" result="shape"/>
</filter>
<filter id="filter4_d_1_256" x="21.4679" y="12.8799" width="6.98652" height="6.98652" filterUnits="userSpaceOnUse" color-interpolation-filters="sRGB">
<feFlood flood-opacity="0" result="BackgroundImageFix"/>
<feColorMatrix in="SourceAlpha" type="matrix" values="0 0 0 0 0 0 0 0 0 0 0 0 0 0 0 0 0 0 127 0" result="hardAlpha"/>
<feOffset dy="0.123876"/>
<feGaussianBlur stdDeviation="0.0619382"/>
<feColorMatrix type="matrix" values="0 0 0 0 0 0 0 0 0 0 0 0 0 0 0 0 0 0 0.25 0"/>
<feBlend mode="normal" in2="BackgroundImageFix" result="effect1_dropShadow_1_256"/>
<feBlend mode="normal" in="SourceGraphic" in2="effect1_dropShadow_1_256" result="shape"/>
</filter>
</defs>
</svg>
