<svg width="277" height="98" viewBox="0 0 277 98" fill="none" xmlns="http://www.w3.org/2000/svg">
<path d="M111.634 53.5081C111.634 52.0186 111.896 50.5981 112.42 49.2466C112.944 47.8674 113.703 46.6675 114.696 45.647C115.689 44.5988 116.902 43.7713 118.337 43.1645C119.799 42.5577 121.454 42.2542 123.302 42.2542C125.812 42.2542 127.922 42.7921 129.632 43.8679C131.342 44.916 132.625 46.2952 133.48 48.0053L127.025 49.9499C126.17 48.5708 124.915 47.8812 123.26 47.8812C121.881 47.8812 120.723 48.3915 119.785 49.412C118.875 50.4326 118.42 51.798 118.42 53.5081C118.42 54.3632 118.544 55.1493 118.792 55.8665C119.04 56.5561 119.385 57.1491 119.826 57.6456C120.268 58.1421 120.778 58.5282 121.357 58.8041C121.964 59.0799 122.598 59.2178 123.26 59.2178C124.088 59.2178 124.846 59.0247 125.536 58.6386C126.226 58.2248 126.736 57.7008 127.067 57.0663L133.521 59.0523C132.721 60.7349 131.439 62.114 129.673 63.1898C127.936 64.2655 125.812 64.8034 123.302 64.8034C121.481 64.8034 119.84 64.5 118.378 63.8932C116.944 63.2587 115.716 62.4313 114.696 61.4107C113.703 60.3625 112.944 59.1627 112.42 57.8111C111.896 56.4319 111.634 54.9976 111.634 53.5081ZM150.291 48.3363C148.691 48.3639 147.243 48.6259 145.947 49.1224C144.65 49.6189 143.712 50.3637 143.133 51.3567V64.3896H136.513V42.668H142.595V47.0537C143.34 45.5918 144.292 44.4471 145.45 43.6196C146.636 42.7921 147.891 42.3646 149.215 42.337C149.519 42.337 149.739 42.337 149.877 42.337C150.015 42.337 150.153 42.3508 150.291 42.3784V48.3363ZM153.079 64.3896V42.668H159.699V64.3896H153.079ZM153.079 40.1855V34.1862H159.699V40.1855H153.079ZM172.795 64.8034C170.947 64.8034 169.127 64.5138 167.334 63.9345C165.541 63.3277 164.024 62.4588 162.783 61.3279L165.141 57.2732C166.465 58.1835 167.748 58.8868 168.989 59.3833C170.258 59.8798 171.471 60.1281 172.63 60.1281C173.485 60.1281 174.147 59.9764 174.616 59.6729C175.085 59.3695 175.319 58.9282 175.319 58.349C175.319 57.7697 175.016 57.3146 174.409 56.9836C173.83 56.625 172.795 56.2526 171.306 55.8665C169.844 55.4527 168.603 55.0528 167.582 54.6666C166.589 54.2805 165.776 53.8529 165.141 53.384C164.507 52.9151 164.052 52.3772 163.776 51.7704C163.5 51.1636 163.362 50.4464 163.362 49.6189C163.362 48.5156 163.583 47.5088 164.024 46.5986C164.465 45.6883 165.072 44.916 165.845 44.2816C166.617 43.6472 167.527 43.1507 168.575 42.7921C169.651 42.4335 170.809 42.2542 172.051 42.2542C173.678 42.2542 175.195 42.4749 176.602 42.9162C178.036 43.3576 179.415 44.1575 180.739 45.316L178.174 49.2879C176.933 48.4329 175.83 47.8122 174.864 47.4261C173.899 47.0399 172.961 46.8468 172.051 46.8468C171.334 46.8468 170.727 46.9985 170.23 47.3019C169.734 47.5778 169.485 48.0329 169.485 48.6673C169.485 49.2741 169.748 49.7293 170.272 50.0327C170.823 50.3361 171.83 50.6671 173.292 51.0257C174.837 51.4394 176.133 51.8531 177.181 52.2669C178.257 52.6806 179.126 53.1496 179.788 53.6736C180.45 54.1701 180.932 54.7494 181.236 55.4114C181.539 56.0734 181.691 56.8595 181.691 57.7697C181.691 59.9212 180.891 61.6313 179.291 62.9002C177.691 64.169 175.526 64.8034 172.795 64.8034ZM196.049 63.3553C195.883 63.438 195.635 63.5484 195.304 63.6863C195.001 63.8242 194.642 63.9621 194.228 64.1C193.815 64.2379 193.346 64.3621 192.822 64.4724C192.298 64.5827 191.746 64.6379 191.167 64.6379C190.56 64.6379 189.981 64.5551 189.429 64.3896C188.877 64.2242 188.395 63.9759 187.981 63.6449C187.567 63.2863 187.236 62.845 186.988 62.3209C186.74 61.7968 186.616 61.19 186.616 60.5004V45.0677H183.637V42.8335H186.616V35.5516H189.429V42.8335H194.394V45.0677H189.429V59.7143C189.484 60.5142 189.76 61.1073 190.256 61.4934C190.781 61.852 191.374 62.0313 192.036 62.0313C192.835 62.0313 193.539 61.9072 194.146 61.6589C194.753 61.3831 195.139 61.19 195.304 61.0797L196.049 63.3553ZM204.984 64.8034C203.964 64.8034 203.012 64.6379 202.129 64.3069C201.274 63.9483 200.516 63.4656 199.854 62.8588C199.219 62.252 198.723 61.5486 198.364 60.7487C198.006 59.9212 197.826 59.0385 197.826 58.1007C197.826 57.1629 198.047 56.294 198.488 55.4941C198.93 54.6942 199.55 54.0046 200.35 53.4254C201.15 52.8461 202.102 52.4048 203.205 52.1014C204.308 51.7704 205.522 51.6049 206.846 51.6049C207.949 51.6049 209.067 51.7014 210.197 51.8945C211.328 52.0876 212.335 52.3634 213.218 52.722V50.7774C213.218 48.8742 212.68 47.3709 211.604 46.2676C210.528 45.1367 209.039 44.5712 207.136 44.5712C206.032 44.5712 204.901 44.7919 203.743 45.2332C202.584 45.6745 201.412 46.309 200.226 47.1364L199.233 45.2746C202.019 43.3989 204.722 42.4611 207.343 42.4611C210.046 42.4611 212.17 43.2197 213.714 44.7367C215.259 46.2538 216.031 48.3501 216.031 51.0257V60.7487C216.031 61.521 216.376 61.9072 217.066 61.9072V64.3896C216.597 64.4724 216.238 64.5138 215.99 64.5138C215.273 64.5138 214.707 64.3345 214.293 63.9759C213.907 63.6173 213.7 63.1208 213.673 62.4864L213.59 60.7901C212.597 62.0865 211.342 63.0795 209.825 63.769C208.336 64.4586 206.722 64.8034 204.984 64.8034ZM205.646 62.6519C207.108 62.6519 208.446 62.3761 209.66 61.8244C210.901 61.2728 211.839 60.5418 212.473 59.6316C212.721 59.3833 212.901 59.1213 213.011 58.8455C213.149 58.542 213.218 58.2662 213.218 58.018V54.5011C212.28 54.1425 211.301 53.8667 210.28 53.6736C209.287 53.4806 208.267 53.384 207.218 53.384C205.232 53.384 203.619 53.7978 202.378 54.6252C201.136 55.4527 200.516 56.5423 200.516 57.8938C200.516 58.5558 200.64 59.1765 200.888 59.7557C201.164 60.3349 201.523 60.8452 201.964 61.2866C202.433 61.7003 202.984 62.0313 203.619 62.2795C204.253 62.5278 204.929 62.6519 205.646 62.6519ZM222.648 42.8335L229.102 51.2739L229.433 51.8945L229.764 51.2739L236.219 42.8335H239.239L231.006 53.6736L239.239 64.3896H236.219L229.764 55.9906L229.433 55.4114L229.102 55.9906L222.648 64.3896H219.628L227.861 53.6736L219.628 42.8335H222.648ZM242.959 64.3896V42.8335H245.772V64.3896H242.959ZM242.959 38.3237V34.1862H245.772V38.3237H242.959ZM259.127 64.8034C257.444 64.8034 255.803 64.5276 254.203 63.9759C252.604 63.4242 251.225 62.6243 250.066 61.5762L251.349 59.6729C252.562 60.6659 253.79 61.4107 255.031 61.9072C256.3 62.4037 257.651 62.6519 259.086 62.6519C260.823 62.6519 262.203 62.3071 263.223 61.6176C264.271 60.9004 264.795 59.8936 264.795 58.5972C264.795 57.9904 264.657 57.4939 264.382 57.1077C264.106 56.694 263.692 56.3354 263.14 56.032C262.616 55.7286 261.941 55.4665 261.113 55.2459C260.313 54.9976 259.375 54.7494 258.3 54.5011C257.058 54.1977 255.983 53.8943 255.072 53.5909C254.162 53.2875 253.404 52.9427 252.797 52.5565C252.217 52.1704 251.776 51.7014 251.473 51.1498C251.197 50.5705 251.059 49.8534 251.059 48.9983C251.059 47.9226 251.266 46.9709 251.68 46.1435C252.121 45.316 252.7 44.6402 253.417 44.1161C254.162 43.5644 255.017 43.1507 255.983 42.8749C256.976 42.599 258.024 42.4611 259.127 42.4611C260.782 42.4611 262.285 42.7369 263.637 43.2886C264.988 43.8127 266.078 44.5161 266.905 45.3987L265.54 47.0537C264.74 46.2262 263.761 45.6056 262.603 45.1918C261.472 44.7781 260.286 44.5712 259.044 44.5712C258.3 44.5712 257.61 44.654 256.976 44.8195C256.341 44.9574 255.776 45.1918 255.279 45.5228C254.81 45.8538 254.438 46.2814 254.162 46.8055C253.886 47.3019 253.748 47.895 253.748 48.5846C253.748 49.1638 253.845 49.6327 254.038 49.9913C254.231 50.3499 254.548 50.6671 254.99 50.9429C255.431 51.1912 255.983 51.4256 256.645 51.6463C257.334 51.8394 258.162 52.0462 259.127 52.2669C260.506 52.5979 261.72 52.9289 262.768 53.2599C263.816 53.5909 264.685 53.977 265.375 54.4184C266.092 54.8597 266.63 55.3976 266.988 56.032C267.347 56.6664 267.526 57.4387 267.526 58.349C267.526 60.3349 266.768 61.9072 265.25 63.0657C263.733 64.2242 261.692 64.8034 259.127 64.8034Z" fill="white"/>
<path fill-rule="evenodd" clip-rule="evenodd" d="M48.9066 97.8132C75.9168 97.8132 97.8132 75.9168 97.8132 48.9066C97.8132 21.8964 75.9168 0 48.9066 0C21.8964 0 0 21.8964 0 48.9066C0 75.9168 21.8964 97.8132 48.9066 97.8132ZM45.3971 26.9386C54.0812 25.3486 57.3758 28.2492 63.0088 31.5939C71.1056 36.4015 76.1066 27.5223 71.1683 22.6234C63.7179 15.2321 48.0561 11.8909 35.8554 16.9975C12.3171 26.8508 6.10034 59.6498 27.6798 75.9615C49.6837 92.5938 79.3492 76.9929 71.8755 66.9193C67.6409 61.2111 60.887 68.4628 56.2066 70.1136C41.8483 75.1791 29.9359 65.0966 27.1928 54.2889C24.1811 42.4249 31.2466 29.5259 45.3954 26.9368L45.3971 26.9386ZM79.6626 33.1857C76.479 36.1258 75.5425 39.9844 68.1781 40.4678C61.2111 40.9262 59.46 37.0228 54.5987 35.1249C43.8501 30.9279 33.8912 38.9459 34.106 49.2933C34.3191 59.4976 44.7078 67.0805 55.1752 62.4752C59.7876 60.4466 61.6946 56.5701 68.9605 57.4456C75.9257 58.2836 76.5309 61.7948 79.6643 64.6346C84.676 55.75 84.5937 42.0775 79.6643 33.1875L79.6626 33.1857Z" fill="#FFCC00"/>
<path d="M185.573 77.6698C185.573 77.0982 185.672 76.531 185.868 75.9683C186.074 75.3967 186.368 74.8876 186.752 74.441C187.136 73.9944 187.61 73.6327 188.173 73.3558C188.735 73.07 189.374 72.9271 190.088 72.9271C190.937 72.9271 191.66 73.1191 192.259 73.5032C192.866 73.8873 193.313 74.3874 193.599 75.0037L192.862 75.4592C192.71 75.1466 192.522 74.8831 192.299 74.6688C192.085 74.4544 191.852 74.2803 191.602 74.1463C191.352 74.0123 191.093 73.9185 190.825 73.8649C190.557 73.8024 190.294 73.7712 190.035 73.7712C189.463 73.7712 188.959 73.8873 188.521 74.1195C188.083 74.3517 187.713 74.6554 187.409 75.0305C187.114 75.4057 186.891 75.8299 186.739 76.3033C186.587 76.7677 186.511 77.2411 186.511 77.7234C186.511 78.2504 186.601 78.755 186.779 79.2373C186.967 79.7196 187.217 80.1484 187.529 80.5235C187.851 80.8897 188.226 81.1844 188.655 81.4077C189.093 81.6221 189.566 81.7293 190.075 81.7293C190.343 81.7293 190.615 81.698 190.892 81.6355C191.178 81.564 191.45 81.4568 191.709 81.3139C191.977 81.1621 192.223 80.979 192.446 80.7646C192.67 80.5414 192.857 80.2734 193.009 79.9608L193.786 80.3627C193.634 80.72 193.42 81.0371 193.143 81.3139C192.866 81.5819 192.558 81.8096 192.219 81.9972C191.879 82.1848 191.517 82.3277 191.133 82.4259C190.758 82.5242 190.388 82.5733 190.021 82.5733C189.369 82.5733 188.771 82.4304 188.226 82.1446C187.681 81.8588 187.212 81.4881 186.819 81.0326C186.426 80.5681 186.118 80.0456 185.895 79.4651C185.681 78.8756 185.573 78.2772 185.573 77.6698ZM195.388 82.4929V72.9807H196.326V82.4929H195.388ZM198.711 82.4929V72.9807H202.73C203.141 72.9807 203.516 73.07 203.856 73.2487C204.204 73.4184 204.503 73.6461 204.753 73.9319C205.003 74.2088 205.195 74.5259 205.329 74.8831C205.472 75.2404 205.544 75.6021 205.544 75.9683C205.544 76.3167 205.49 76.6516 205.383 76.9732C205.285 77.2858 205.142 77.5716 204.954 77.8306C204.776 78.0807 204.557 78.295 204.298 78.4737C204.039 78.6434 203.748 78.7595 203.427 78.822L205.758 82.4929H204.7L202.462 78.9828H199.649V82.4929H198.711ZM199.649 78.1521H202.757C203.034 78.1521 203.284 78.0941 203.507 77.978C203.739 77.8529 203.936 77.6877 204.097 77.4823C204.257 77.2768 204.383 77.0446 204.472 76.7856C204.561 76.5266 204.606 76.2542 204.606 75.9683C204.606 75.6825 204.552 75.4101 204.445 75.1511C204.347 74.8831 204.208 74.6509 204.03 74.4544C203.86 74.2579 203.655 74.1016 203.413 73.9855C203.181 73.8694 202.936 73.8114 202.677 73.8114H199.649V78.1521ZM213.854 81.6623V82.4929H207.464V72.9807H213.734V73.8114H208.402V77.2411H213.051V78.0316H208.402V81.6623H213.854ZM216.566 74.7224V82.4929H215.628V72.9807H216.351L222.648 80.8986V72.9941H223.586V82.4929H222.769L216.566 74.7224ZM225.347 77.6698C225.347 77.0982 225.445 76.531 225.642 75.9683C225.847 75.3967 226.142 74.8876 226.526 74.441C226.91 73.9944 227.384 73.6327 227.946 73.3558C228.509 73.07 229.148 72.9271 229.862 72.9271C230.711 72.9271 231.434 73.1191 232.033 73.5032C232.64 73.8873 233.086 74.3874 233.372 75.0037L232.635 75.4592C232.484 75.1466 232.296 74.8831 232.073 74.6688C231.858 74.4544 231.626 74.2803 231.376 74.1463C231.126 74.0123 230.867 73.9185 230.599 73.8649C230.331 73.8024 230.068 73.7712 229.809 73.7712C229.237 73.7712 228.732 73.8873 228.295 74.1195C227.857 74.3517 227.486 74.6554 227.183 75.0305C226.888 75.4057 226.665 75.8299 226.513 76.3033C226.361 76.7677 226.285 77.2411 226.285 77.7234C226.285 78.2504 226.374 78.755 226.553 79.2373C226.741 79.7196 226.991 80.1484 227.303 80.5235C227.625 80.8897 228 81.1844 228.429 81.4077C228.866 81.6221 229.34 81.7293 229.849 81.7293C230.117 81.7293 230.389 81.698 230.666 81.6355C230.952 81.564 231.224 81.4568 231.483 81.3139C231.751 81.1621 231.997 80.979 232.22 80.7646C232.443 80.5414 232.631 80.2734 232.783 79.9608L233.56 80.3627C233.408 80.72 233.194 81.0371 232.917 81.3139C232.64 81.5819 232.332 81.8096 231.992 81.9972C231.653 82.1848 231.291 82.3277 230.907 82.4259C230.532 82.5242 230.161 82.5733 229.795 82.5733C229.143 82.5733 228.545 82.4304 228 82.1446C227.455 81.8588 226.986 81.4881 226.593 81.0326C226.2 80.5681 225.892 80.0456 225.669 79.4651C225.454 78.8756 225.347 78.2772 225.347 77.6698ZM241.552 81.6623V82.4929H235.161V72.9807H241.432V73.8114H236.099V77.2411H240.748V78.0316H236.099V81.6623H241.552ZM248.689 74.7626C248.421 74.4589 248.064 74.2133 247.617 74.0257C247.171 73.8381 246.662 73.7444 246.09 73.7444C245.251 73.7444 244.639 73.9051 244.255 74.2267C243.871 74.5393 243.679 74.968 243.679 75.5128C243.679 75.7986 243.728 76.0353 243.826 76.2229C243.933 76.4015 244.094 76.5578 244.308 76.6918C244.523 76.8258 244.795 76.9419 245.126 77.0401C245.465 77.1384 245.862 77.2366 246.318 77.3349C246.827 77.4421 247.283 77.5626 247.684 77.6966C248.095 77.8306 248.444 78.0003 248.729 78.2057C249.015 78.4022 249.234 78.6434 249.386 78.9292C249.538 79.215 249.614 79.5723 249.614 80.001C249.614 80.4386 249.529 80.8182 249.359 81.1398C249.189 81.4613 248.953 81.7293 248.649 81.9436C248.345 82.158 247.984 82.3188 247.564 82.4259C247.144 82.5242 246.684 82.5733 246.184 82.5733C244.71 82.5733 243.437 82.1133 242.366 81.1934L242.835 80.4297C243.004 80.6083 243.205 80.778 243.437 80.9388C243.679 81.0996 243.942 81.2425 244.228 81.3675C244.523 81.4836 244.835 81.5774 245.166 81.6489C245.496 81.7114 245.845 81.7427 246.211 81.7427C246.97 81.7427 247.559 81.6087 247.979 81.3407C248.408 81.0639 248.622 80.6485 248.622 80.0948C248.622 79.8 248.56 79.5544 248.435 79.3579C248.319 79.1525 248.14 78.9783 247.899 78.8354C247.658 78.6836 247.358 78.5541 247.001 78.4469C246.644 78.3397 246.229 78.2325 245.755 78.1253C245.255 78.0092 244.817 77.8887 244.442 77.7636C244.067 77.6386 243.75 77.4823 243.491 77.2947C243.232 77.1071 243.036 76.8838 242.902 76.6248C242.777 76.3569 242.714 76.0309 242.714 75.6468C242.714 75.2092 242.794 74.8206 242.955 74.4812C243.125 74.1329 243.362 73.8471 243.665 73.6238C243.969 73.3916 244.326 73.2174 244.737 73.1013C245.148 72.9762 245.603 72.9137 246.104 72.9137C246.738 72.9137 247.3 73.012 247.792 73.2085C248.292 73.396 248.743 73.664 249.145 74.0123L248.689 74.7626ZM257.954 73.8114H254.565V82.4929H253.627V73.8114H250.237V72.9807H257.954V73.8114ZM265.77 81.6623V82.4929H259.379V72.9807H265.649V73.8114H260.317V77.2411H264.966V78.0316H260.317V81.6623H265.77ZM267.543 82.4929V72.9807H271.562C271.973 72.9807 272.348 73.07 272.688 73.2487C273.036 73.4184 273.335 73.6461 273.585 73.9319C273.835 74.2088 274.027 74.5259 274.161 74.8831C274.304 75.2404 274.376 75.6021 274.376 75.9683C274.376 76.3167 274.322 76.6516 274.215 76.9732C274.117 77.2858 273.974 77.5716 273.786 77.8306C273.608 78.0807 273.389 78.295 273.13 78.4737C272.871 78.6434 272.581 78.7595 272.259 78.822L274.59 82.4929H273.532L271.294 78.9828H268.481V82.4929H267.543ZM268.481 78.1521H271.589C271.866 78.1521 272.116 78.0941 272.339 77.978C272.572 77.8529 272.768 77.6877 272.929 77.4823C273.09 77.2768 273.215 77.0446 273.304 76.7856C273.393 76.5266 273.438 76.2542 273.438 75.9683C273.438 75.6825 273.384 75.4101 273.277 75.1511C273.179 74.8831 273.041 74.6509 272.862 74.4544C272.692 74.2579 272.487 74.1016 272.246 73.9855C272.013 73.8694 271.768 73.8114 271.509 73.8114H268.481V78.1521Z" fill="white"/>
</svg>
