<svg width="39" height="39" viewBox="0 0 39 39" fill="none" xmlns="http://www.w3.org/2000/svg">
<path d="M19.5 0C8.74732 0 0 8.74751 0 19.4997C0 30.2521 8.74732 39 19.5 39C30.252 39 39 30.2521 39 19.4997C39 8.74751 30.252 0 19.5 0ZM25.0112 12.3097C25.0112 12.4021 24.9746 12.4906 24.9093 12.5559C24.844 12.6212 24.7554 12.6579 24.6631 12.6579L22.4464 12.6593C20.9838 12.6593 20.7164 13.2288 20.7164 14.3506V16.6776H24.5183C24.6182 16.6776 24.7136 16.7208 24.7794 16.796C24.8452 16.8712 24.8758 16.9711 24.8636 17.0703L24.3223 21.2595C24.3114 21.3435 24.2704 21.4206 24.2068 21.4765C24.1433 21.5323 24.0615 21.5631 23.9769 21.5631H20.7164V31.9654C20.7164 32.0577 20.6798 32.1463 20.6145 32.2115C20.5492 32.2768 20.4606 32.3135 20.3683 32.3135H16.0429C15.9505 32.3135 15.862 32.2768 15.7967 32.2115C15.7314 32.1463 15.6947 32.0577 15.6947 31.9654V21.5631H12.4238C12.3315 21.5631 12.2429 21.5264 12.1776 21.4611C12.1123 21.3959 12.0757 21.3073 12.0757 21.215V17.0257C12.0757 16.9334 12.1123 16.8448 12.1776 16.7796C12.2429 16.7143 12.3315 16.6776 12.4238 16.6776H15.6947V13.9359C15.6947 10.3048 17.8922 8.04948 21.4305 8.04948C22.9516 8.04948 24.2958 8.16263 24.7087 8.21729C24.7924 8.22835 24.8692 8.26943 24.9249 8.3329C24.9805 8.39636 25.0112 8.47789 25.0112 8.5623V12.3097Z" fill="white"/>
</svg>
