<svg width="58" height="61" viewBox="0 0 58 61" fill="none" xmlns="http://www.w3.org/2000/svg">
<path d="M56.6846 13.7253H49.1846V5.28784C49.1846 5.0392 49.0858 4.80074 48.91 4.62493C48.7342 4.44911 48.4957 4.35034 48.2471 4.35034H6.05957V3.41284C6.05957 2.66692 5.76325 1.95155 5.23581 1.4241C4.70836 0.896658 3.99299 0.600342 3.24707 0.600342C2.50115 0.600342 1.78578 0.896658 1.25833 1.4241C0.730887 1.95155 0.43457 2.66692 0.43457 3.41284V57.7878C0.43457 58.5338 0.730887 59.2491 1.25833 59.7766C1.78578 60.304 2.50115 60.6003 3.24707 60.6003C3.99299 60.6003 4.70836 60.304 5.23581 59.7766C5.76325 59.2491 6.05957 58.5338 6.05957 57.7878V38.1003H37.9346V42.8535C37.952 42.9765 37.9868 43.0964 38.0377 43.2097V43.266C38.0725 43.3233 38.1134 43.3767 38.1596 43.4253C38.2363 43.4992 38.3251 43.5594 38.4221 43.6035H38.4971C38.5987 43.6438 38.7066 43.666 38.8158 43.6691H56.6283C56.877 43.6691 57.1154 43.5703 57.2912 43.3945C57.4671 43.2187 57.5658 42.9802 57.5658 42.7316V14.6628C57.5663 14.4236 57.4752 14.1933 57.3114 14.019C57.1476 13.8448 56.9233 13.7397 56.6846 13.7253ZM6.05957 6.22534H47.3096V36.2253H6.05957V6.22534ZM44.8627 38.1003L39.8096 41.1285V38.1003H44.8627ZM55.7471 41.8503H42.2564L48.7158 37.9691C48.7775 37.9328 48.8343 37.8887 48.8846 37.8378L48.9408 37.7722C48.9663 37.7337 48.9883 37.6929 49.0064 37.6503V37.5847C49.0312 37.5119 49.047 37.4364 49.0533 37.3597C49.0549 37.3285 49.0549 37.2972 49.0533 37.266V15.6003H55.6158L55.7471 41.8503Z" fill="#FFCC00"/>
<path d="M39.0316 17.3253H29.5723L26.6848 8.75659L23.7973 17.3253H14.3379L21.9879 22.6785L19.091 31.2847L26.6848 25.9691L34.2785 31.2847L31.3816 22.6785L39.0316 17.3253Z" fill="#FFCC00"/>
</svg>
