<svg width="70" height="61" viewBox="0 0 70 61" fill="none" xmlns="http://www.w3.org/2000/svg">
<path d="M62.6925 46.7542C59.6878 46.7542 57.1494 48.688 56.194 51.3696H14.2309C9.14015 51.3696 5.00015 47.2296 5.00015 42.1388C5.00015 37.048 9.14015 32.908 14.2309 32.908H55.7694C63.4032 32.908 69.6155 26.6957 69.6155 19.0619C69.6155 11.428 63.4032 5.21573 55.7694 5.21573H13.8063C12.8509 2.53419 10.3125 0.600342 7.30784 0.600342C3.49092 0.600342 0.384766 3.7065 0.384766 7.52342C0.384766 11.3403 3.49092 14.4465 7.30784 14.4465C10.3125 14.4465 12.8509 12.5126 13.8063 9.83111H55.7694C60.8601 9.83111 65.0002 13.9711 65.0002 19.0619C65.0002 24.1526 60.8601 28.2926 55.7694 28.2926H14.2309C6.59707 28.2926 0.384766 34.505 0.384766 42.1388C0.384766 49.7726 6.59707 55.985 14.2309 55.985H56.194C57.1494 58.6665 59.6878 60.6003 62.6925 60.6003C66.5094 60.6003 69.6155 57.4942 69.6155 53.6773C69.6155 49.8603 66.5094 46.7542 62.6925 46.7542ZM7.30784 9.83111C6.6958 9.83111 6.10883 9.58798 5.67606 9.1552C5.24328 8.72243 5.00015 8.13546 5.00015 7.52342C5.00015 6.91138 5.24328 6.32441 5.67606 5.89163C6.10883 5.45886 6.6958 5.21573 7.30784 5.21573C7.91988 5.21573 8.50685 5.45886 8.93963 5.89163C9.3724 6.32441 9.61553 6.91138 9.61553 7.52342C9.61553 8.13546 9.3724 8.72243 8.93963 9.1552C8.50685 9.58798 7.91988 9.83111 7.30784 9.83111ZM62.6925 55.985C62.0804 55.985 61.4934 55.7418 61.0607 55.3091C60.6279 54.8763 60.3848 54.2893 60.3848 53.6773C60.3848 53.0652 60.6279 52.4783 61.0607 52.0455C61.4934 51.6127 62.0804 51.3696 62.6925 51.3696C63.3045 51.3696 63.8915 51.6127 64.3242 52.0455C64.757 52.4783 65.0002 53.0652 65.0002 53.6773C65.0002 54.2893 64.757 54.8763 64.3242 55.3091C63.8915 55.7418 63.3045 55.985 62.6925 55.985Z" fill="#FFCC00"/>
</svg>
