<svg width="94" height="61" viewBox="0 0 94 61" fill="none" xmlns="http://www.w3.org/2000/svg">
<path d="M66.4 47.0144C63.5869 46.035 60.5447 45.9725 57.7316 44.9932C56.8773 44.7014 55.1895 44.3472 54.8352 43.3678C54.5018 42.4093 54.5018 41.2841 54.4393 40.2839C54.3977 39.4921 54.3768 38.7003 54.3768 37.9085C54.3768 37.3875 55.7104 36.2831 56.0021 35.8039C57.1273 33.9285 57.2315 31.4072 57.4399 29.2818C59.2528 29.7819 59.482 26.4271 59.7945 25.406C60.0237 24.6976 61.4198 19.8216 59.2528 20.4884C59.7737 19.5716 59.9821 18.4464 60.1279 17.4253C60.5447 14.7582 60.7114 11.8409 59.8987 9.23625C58.2109 3.81854 53.0224 0.776285 47.5422 0.609586C41.9786 0.42205 36.3942 3.08923 34.3104 8.48611C33.3102 11.1116 33.3936 13.9663 33.727 16.7169C33.8729 17.9671 34.0812 19.3632 34.7064 20.4884C32.6851 19.8841 33.7687 24.1766 33.9979 24.9268C34.3313 25.9895 34.623 29.8027 36.5192 29.2818C36.6859 30.9696 36.8734 32.6991 37.3319 34.3453C37.6444 35.4496 38.2904 36.3873 39.0405 37.2417C39.4156 37.6584 39.6031 37.7001 39.5823 38.2419C39.5615 39.8672 39.6031 41.6175 39.1864 43.2011C38.7696 44.7848 35.2898 45.4516 33.8937 45.7433C30.143 46.5143 26.684 46.8685 23.5584 49.2023C19.9118 51.8903 18.0156 56.0786 18.0156 60.6003H75.9435C75.9435 54.4533 72.2344 49.0356 66.4 47.0144Z" fill="#FFCC00"/>
<path d="M23.4957 44.4514C22.7872 44.8056 21.9329 45.2432 23.6624 44.368L23.8291 44.2847C25.246 43.6179 26.7672 43.4512 28.2883 43.3053C28.8717 43.2428 29.1426 42.8469 28.705 42.2843C27.8715 41.2216 24.996 41.0132 23.7874 40.534C23.0373 40.2422 22.8289 39.9713 22.7664 39.1379C22.7455 38.7628 22.5372 37.0958 22.8289 36.8249C23.0373 36.6165 24.35 36.6999 24.6417 36.6582C25.8295 36.5123 27.038 36.2623 28.1633 35.8247C28.6425 35.6372 29.1009 35.408 29.5177 35.1162C30.0178 34.7412 29.1426 33.8243 28.9134 33.3242C28.2049 31.7614 27.8924 30.0528 27.7882 28.3441C27.5798 24.9893 28.1007 21.6136 27.4756 18.2797C26.5379 13.1745 22.5997 10.6115 17.5779 10.6115C14.4731 10.6115 11.41 11.6742 9.68052 14.3831C7.76349 17.3628 7.86767 21.0719 7.97186 24.4684C8.03437 26.4062 8.11772 28.3649 7.84683 30.3028C7.72181 31.1363 7.53428 31.949 7.24255 32.7408C7.01334 33.3451 5.84645 34.8454 6.30487 35.1579C8.03437 36.3873 10.9516 36.8041 13.0353 36.6374C13.0978 37.6584 13.2854 38.9712 12.9103 39.9297C12.3269 41.43 7.97186 41.8259 6.65911 42.2635C3.01257 43.472 0.303711 46.4309 0.303711 50.5984H16.8694C17.1403 50.5984 18.1822 48.6605 18.4739 48.348C19.8908 46.7852 21.6203 45.4307 23.4957 44.4514Z" fill="#FFCC00"/>
<path d="M87.258 42.2426C85.5701 41.7008 82.3195 41.5342 81.1109 40.0755C80.5067 39.3462 80.8401 37.4917 80.9026 36.6165C81.8194 36.6999 82.8196 36.554 83.7573 36.429C84.6116 36.304 85.4451 36.1373 86.2578 35.8456C86.6329 35.6997 87.0079 35.5538 87.3622 35.3455C88.1748 34.8662 87.7997 34.7828 87.383 34.0744C85.1117 30.2611 86.1328 25.4269 86.0286 21.2386C85.9452 17.7587 85.0284 13.9455 81.8611 11.9868C79.0064 10.2156 74.7764 10.1531 71.7133 11.4033C62.8783 14.9457 68.0876 26.6563 65.0662 33.3659C64.5452 34.4911 63.7951 34.887 65.1079 35.5538C65.8372 35.9289 66.629 36.179 67.4208 36.3665C68.6294 36.6582 69.8796 36.8249 71.1299 36.8666C71.3382 36.8666 71.1924 39.4921 71.1299 39.763C70.9006 40.784 68.671 41.0757 67.8376 41.3049C66.9832 41.5341 65.5663 41.5967 65.1495 42.4927C64.5244 43.8263 67.2124 43.4929 67.8792 43.6179C70.0255 44.0138 71.9217 45.2015 73.5887 46.556C74.8389 47.577 76.5267 48.9523 76.9852 50.6192H93.6967C93.655 46.4309 90.9253 43.4512 87.258 42.2426Z" fill="#FFCC00"/>
</svg>
