<svg width="40" height="39" viewBox="0 0 40 39" fill="none" xmlns="http://www.w3.org/2000/svg">
<path d="M20.4023 14.664C19.4459 14.664 18.5109 14.9476 17.7156 15.479C16.9203 16.0104 16.3005 16.7657 15.9345 17.6493C15.5684 18.533 15.4727 19.5054 15.6593 20.4435C15.8459 21.3815 16.3064 22.2432 16.9828 22.9196C17.6591 23.5959 18.5208 24.0565 19.4589 24.2431C20.397 24.4297 21.3693 24.3339 22.253 23.9679C23.1367 23.6019 23.8919 22.982 24.4233 22.1867C24.9547 21.3915 25.2383 20.4565 25.2383 19.5C25.2383 18.8649 25.1133 18.2361 24.8702 17.6493C24.6272 17.0626 24.271 16.5295 23.8219 16.0804C23.3729 15.6314 22.8397 15.2752 22.253 15.0321C21.6663 14.7891 21.0374 14.664 20.4023 14.664ZM39.7658 9.8865C39.7556 8.38063 39.4783 6.88851 38.9468 5.4795C38.5554 4.44846 37.9499 3.51213 37.17 2.73231C36.3902 1.95249 35.4539 1.3469 34.4228 0.9555C33.0138 0.424054 31.5217 0.146759 30.0158 0.1365C27.5003 -1.30758e-07 26.7593 0 20.4023 0C14.0453 0 13.3043 -1.30758e-07 10.7888 0.1365C9.28297 0.146759 7.79086 0.424054 6.38184 0.9555C5.3508 1.3469 4.41448 1.95249 3.63466 2.73231C2.85483 3.51213 2.24924 4.44846 1.85784 5.4795C1.3264 6.88851 1.0491 8.38063 1.03884 9.8865C0.902344 12.402 0.902344 13.143 0.902344 19.5C0.902344 25.857 0.902344 26.598 1.03884 29.1135C1.05983 30.6247 1.33675 32.1214 1.85784 33.54C2.24751 34.5663 2.85259 35.4972 3.63234 36.27C4.40882 37.0545 5.34715 37.6601 6.38184 38.0445C7.79086 38.576 9.28297 38.8532 10.7888 38.8635C13.3043 39 14.0453 39 20.4023 39C26.7593 39 27.5003 39 30.0158 38.8635C31.5217 38.8532 33.0138 38.576 34.4228 38.0445C35.4575 37.6601 36.3959 37.0545 37.1723 36.27C37.9521 35.4972 38.5572 34.5663 38.9468 33.54C39.4778 32.1241 39.755 30.6257 39.7658 29.1135C39.9023 26.598 39.9023 25.857 39.9023 19.5C39.9023 13.143 39.9023 12.402 39.7658 9.8865ZM34.8128 25.4865C34.7503 26.6899 34.4935 27.8752 34.0523 28.9965C33.6738 29.9319 33.111 30.7816 32.3975 31.4951C31.684 32.2087 30.8342 32.7714 29.8988 33.15C28.7669 33.5665 27.575 33.797 26.3693 33.8325C24.8288 33.8325 24.4193 33.8325 20.4023 33.8325C16.3853 33.8325 15.9758 33.8325 14.4353 33.8325C13.2297 33.797 12.0378 33.5665 10.9058 33.15C9.93885 32.7907 9.06558 32.2174 8.35134 31.473C7.64479 30.7734 7.09914 29.9283 6.75234 28.9965C6.33418 27.8657 6.11003 26.6724 6.08934 25.467C6.08934 23.9265 6.08934 23.517 6.08934 19.5C6.08934 15.483 6.08934 15.0735 6.08934 13.533C6.11003 12.3276 6.33418 11.1343 6.75234 10.0035C7.11169 9.0365 7.68498 8.16324 8.42934 7.449C9.13199 6.74627 9.97621 6.20118 10.9058 5.85C12.0378 5.43349 13.2297 5.20301 14.4353 5.1675C15.9758 5.1675 16.3853 5.1675 20.4023 5.1675C24.4193 5.1675 24.8288 5.1675 26.3693 5.1675C27.575 5.20301 28.7669 5.43349 29.8988 5.85C30.8658 6.20935 31.7391 6.78264 32.4533 7.527C33.1599 8.22656 33.7056 9.07166 34.0523 10.0035C34.4689 11.1355 34.6993 12.3274 34.7348 13.533C34.7348 15.0735 34.7348 15.483 34.7348 19.5C34.7348 23.517 34.8713 23.9265 34.8128 25.467V25.4865ZM31.6928 10.9785C31.4607 10.3486 31.0946 9.7766 30.6199 9.30192C30.1452 8.82723 29.5732 8.46117 28.9433 8.229C28.0785 7.92921 27.1676 7.78399 26.2523 7.8C24.7313 7.8 24.3023 7.8 20.4023 7.8C16.5023 7.8 16.0733 7.8 14.5523 7.8C13.6325 7.80899 12.7214 7.98064 11.8613 8.307C11.2411 8.52863 10.6751 8.87974 10.2011 9.33699C9.72702 9.79424 9.35571 10.3472 9.11184 10.959C8.82866 11.8275 8.69031 12.7366 8.70234 13.65C8.70234 15.171 8.70234 15.6 8.70234 19.5C8.70234 23.4 8.70234 23.829 8.70234 25.35C8.72168 26.2688 8.89299 27.1781 9.20934 28.041C9.44152 28.6709 9.80757 29.2429 10.2823 29.7176C10.7569 30.1923 11.329 30.5583 11.9588 30.7905C12.7908 31.0965 13.6664 31.2676 14.5523 31.2975C16.0733 31.2975 16.5023 31.2975 20.4023 31.2975C24.3023 31.2975 24.7313 31.2975 26.2523 31.2975C27.1722 31.2885 28.0833 31.1169 28.9433 30.7905C29.5732 30.5583 30.1452 30.1923 30.6199 29.7176C31.0946 29.2429 31.4607 28.6709 31.6928 28.041C32.0192 27.1809 32.1909 26.2699 32.1998 25.35C32.1998 23.829 32.1998 23.4 32.1998 19.5C32.1998 15.6 32.1998 15.171 32.1998 13.65C32.2004 12.7292 32.0284 11.8165 31.6928 10.959V10.9785ZM20.4023 26.949C19.425 26.949 18.4573 26.7562 17.5547 26.3816C16.652 26.007 15.8321 25.458 15.142 24.7661C14.4518 24.0741 13.905 23.2528 13.5328 22.3491C13.1606 21.4455 12.9703 20.4773 12.9728 19.5C12.9728 18.0259 13.4102 16.5849 14.2296 15.3595C15.049 14.1341 16.2135 13.1794 17.5758 12.6162C18.938 12.053 20.4368 11.9066 21.8823 12.1956C23.3278 12.4846 24.655 13.196 25.696 14.2397C26.737 15.2834 27.4449 16.6125 27.7301 18.0588C28.0153 19.505 27.865 21.0034 27.2982 22.3641C26.7314 23.7249 25.7736 24.887 24.5461 25.7031C23.3185 26.5193 21.8764 26.9529 20.4023 26.949ZM28.2023 13.5135C27.7713 13.4679 27.3724 13.2643 27.0824 12.9421C26.7925 12.6199 26.6321 12.2017 26.6321 11.7683C26.6321 11.3348 26.7925 10.9166 27.0824 10.5944C27.3724 10.2722 27.7713 10.0686 28.2023 10.023C28.6334 10.0686 29.0323 10.2722 29.3223 10.5944C29.6122 10.9166 29.7726 11.3348 29.7726 11.7683C29.7726 12.2017 29.6122 12.6199 29.3223 12.9421C29.0323 13.2643 28.6334 13.4679 28.2023 13.5135Z" fill="white"/>
</svg>
