<svg width="40" height="39" viewBox="0 0 40 39" fill="none" xmlns="http://www.w3.org/2000/svg">
<path d="M20.3175 0C9.5548 0 0.829102 8.73073 0.829102 19.4997C0.829102 30.2689 9.55447 39 20.3175 39C31.0809 39 39.807 30.2689 39.807 19.4997C39.8066 8.73073 31.0809 0 20.3175 0ZM12.2307 8.79479C13.5564 8.79479 14.6317 9.77596 14.6317 10.9864C14.6317 12.1969 13.5564 13.178 12.2307 13.178C10.9044 13.178 9.82978 12.1969 9.82978 10.9864C9.82978 9.77596 10.9044 8.79479 12.2307 8.79479ZM14.6499 27.5399H9.90593V15.1539H14.6499V27.5399ZM30.7702 27.5399H26.0034V20.729C26.0034 19.9515 25.8591 19.4012 25.5717 19.0782C25.2839 18.7559 24.8799 18.594 24.3599 18.594C23.7847 18.594 23.318 18.8118 22.9608 19.2475C22.6033 19.6831 22.425 20.4643 22.425 21.5918V27.5399H17.6807V15.1539H22.0981V17.1712C22.7583 16.3474 23.4268 15.7584 24.1028 15.4044C24.7788 15.0507 25.602 14.874 26.5735 14.874C27.8871 14.874 28.9145 15.2644 29.6569 16.046C30.3986 16.8272 30.7699 18.0343 30.7699 19.6672L30.7702 27.5399Z" fill="white"/>
</svg>
