<svg width="41" height="49" viewBox="0 0 41 49" fill="none" xmlns="http://www.w3.org/2000/svg">
<path fill-rule="evenodd" clip-rule="evenodd" d="M38.8182 20.4091C38.8182 32.6196 25.43 43.3425 21.4884 46.2348C20.8374 46.7125 19.9808 46.7125 19.3298 46.2348C15.3882 43.3425 2 32.6196 2 20.4091C2 15.5267 3.93952 10.8443 7.3919 7.3919C10.8443 3.93952 15.5267 2 20.4091 2C25.2915 2 29.9739 3.93952 33.4263 7.3919C36.8787 10.8443 38.8182 15.5267 38.8182 20.4091Z" stroke="#BABABA" stroke-width="3" stroke-linecap="round" stroke-linejoin="round"/>
<path d="M20.4092 26.5462C23.7982 26.5462 26.5456 23.7988 26.5456 20.4098C26.5456 17.0208 23.7982 14.2734 20.4092 14.2734C17.0202 14.2734 14.2728 17.0208 14.2728 20.4098C14.2728 23.7988 17.0202 26.5462 20.4092 26.5462Z" stroke="#BABABA" stroke-width="3" stroke-linecap="round" stroke-linejoin="round"/>
</svg>
