<svg width="25" height="25" viewBox="0 0 25 25" fill="none" xmlns="http://www.w3.org/2000/svg">
<path d="M3.66071 21.3386C8.54266 26.2204 16.4566 26.2204 21.3385 21.3386C26.2205 16.4568 26.2205 8.54316 21.3385 3.66135C16.4566 -1.22045 8.54266 -1.22045 3.66071 3.66135C-1.22024 8.54316 -1.22024 16.4568 3.66071 21.3386ZM9.20566 4.72631L11.0656 6.58624C11.4376 6.95822 11.5166 7.5332 11.2586 7.99218L10.5596 9.23313C10.4757 9.38192 10.4429 9.55413 10.4662 9.72336C10.4895 9.89259 10.5676 10.0495 10.6886 10.1701L14.8296 14.3109C14.9503 14.4318 15.1073 14.5097 15.2765 14.5329C15.4458 14.556 15.6179 14.523 15.7666 14.4389L17.0076 13.7399C17.2308 13.6141 17.4892 13.5649 17.7431 13.5997C17.997 13.6346 18.2325 13.7516 18.4136 13.9329L20.2745 15.7939C20.4944 16.0141 20.6178 16.3126 20.6178 16.6238C20.6178 16.935 20.4944 17.2335 20.2745 17.4538L19.3936 18.3348C18.9048 18.8223 18.2688 19.1349 17.5843 19.224C16.8997 19.3132 16.2049 19.1739 15.6076 18.8277L15.5236 18.7797C11.8727 16.6937 8.81911 13.7046 6.65568 10.0991L6.23269 9.39312C5.87315 8.79493 5.72401 8.09368 5.80899 7.40096C5.89398 6.70823 6.20821 6.06382 6.70168 5.57028L7.54567 4.72631C7.65462 4.61722 7.784 4.53068 7.92641 4.47163C8.06883 4.41259 8.22149 4.3822 8.37567 4.3822C8.52984 4.3822 8.6825 4.41259 8.82492 4.47163C8.96733 4.53068 9.09671 4.61722 9.20566 4.72631Z" fill="#FFCC00"/>
</svg>
