<svg width="224" height="224" viewBox="0 0 224 224" fill="none" xmlns="http://www.w3.org/2000/svg">
<path d="M112.172 223.441C173.874 223.441 223.893 173.422 223.893 111.72C223.893 50.0189 173.874 0 112.172 0C50.4708 0 0.451904 50.0189 0.451904 111.72C0.451904 173.422 50.4708 223.441 112.172 223.441Z" fill="#FFCC00" fill-opacity="0.25"/>
<path d="M111.499 213.667C167.563 213.667 213.012 168.218 213.012 112.153C213.012 56.0891 167.563 10.64 111.499 10.64C55.4347 10.64 9.9856 56.0891 9.9856 112.153C9.9856 168.218 55.4347 213.667 111.499 213.667Z" fill="#FFCC00"/>
<path d="M96.6577 164.188C94.9047 164.188 93.1757 163.78 91.6079 162.996C90.04 162.211 88.6764 161.073 87.625 159.67L59.9307 122.744C59.0362 121.558 58.3843 120.207 58.0128 118.769C57.6412 117.331 57.5571 115.833 57.7652 114.362C57.9733 112.892 58.4696 111.476 59.2255 110.198C59.9815 108.919 60.9824 107.802 62.1708 106.911C63.3592 106.019 64.7118 105.371 66.1511 105.004C67.5903 104.636 69.0879 104.556 70.5582 104.768C72.0284 104.98 73.4424 105.481 74.719 106.24C75.9956 107 77.1098 108.003 77.9977 109.194L96.1164 133.351L142.652 63.5486C144.313 61.0567 146.896 59.3268 149.833 58.7395C152.77 58.1521 155.819 58.7555 158.311 60.4167C160.803 62.078 162.533 64.6611 163.12 67.5978C163.708 70.5345 163.104 73.5842 161.443 76.0761L106.054 159.159C105.052 160.662 103.705 161.902 102.124 162.777C100.544 163.651 98.7772 164.134 96.9719 164.184C96.8671 164.186 96.7625 164.188 96.6577 164.188Z" fill="white"/>
</svg>
